<mxfile host="app.diagrams.net" modified="2023-09-16T06:53:48.182Z" agent="Mozilla/5.0 (Windows NT 10.0; Win64; x64) AppleWebKit/537.36 (KHTML, like Gecko) Chrome/116.0.0.0 Safari/537.36 OpenWave/99.4.7763.64" etag="QpskhHnjuOktIEGu1pdV" version="21.7.5" type="device">
  <diagram name="Page-1" id="F55Mbg4zzoxhmsfP9F2V">
    <mxGraphModel dx="2074" dy="790" grid="1" gridSize="10" guides="1" tooltips="1" connect="1" arrows="1" fold="1" page="1" pageScale="1" pageWidth="827" pageHeight="1169" math="0" shadow="0">
      <root>
        <mxCell id="0" />
        <mxCell id="1" parent="0" />
        <mxCell id="MvYqBOjVcbLFHdokLBEU-17" value="Inventory" style="strokeWidth=1;shadow=0;dashed=0;align=center;html=1;shape=mxgraph.mockup.buttons.button;strokeColor=#666666;fontColor=#ffffff;mainText=;buttonStyle=round;fontSize=17;fontStyle=1;fillColor=#008cff;whiteSpace=wrap;" parent="1" vertex="1">
          <mxGeometry x="950" y="50" width="90" height="30" as="geometry" />
        </mxCell>
        <object label="" Settings="" id="MvYqBOjVcbLFHdokLBEU-16">
          <mxCell style="icon;html=1;image=img/clipart/Gear_128x128.png;fontSize=13;" parent="1" vertex="1">
            <mxGeometry x="50" y="35" width="60" height="60" as="geometry" />
          </mxCell>
        </object>
        <mxCell id="MvYqBOjVcbLFHdokLBEU-2" value="" style="endArrow=none;html=1;rounded=0;entryX=0.132;entryY=0.667;entryDx=0;entryDy=0;entryPerimeter=0;" parent="1" target="MvYqBOjVcbLFHdokLBEU-1" edge="1">
          <mxGeometry width="50" height="50" relative="1" as="geometry">
            <mxPoint x="20" y="690" as="sourcePoint" />
            <mxPoint x="70" y="570" as="targetPoint" />
          </mxGeometry>
        </mxCell>
        <mxCell id="MvYqBOjVcbLFHdokLBEU-3" value="" style="endArrow=none;html=1;rounded=0;entryX=1.001;entryY=0.667;entryDx=0;entryDy=0;entryPerimeter=0;" parent="1" target="MvYqBOjVcbLFHdokLBEU-1" edge="1">
          <mxGeometry width="50" height="50" relative="1" as="geometry">
            <mxPoint x="160" y="560" as="sourcePoint" />
            <mxPoint x="570" y="400" as="targetPoint" />
          </mxGeometry>
        </mxCell>
        <mxCell id="MvYqBOjVcbLFHdokLBEU-4" value="" style="endArrow=none;html=1;rounded=0;entryX=1.001;entryY=0.667;entryDx=0;entryDy=0;entryPerimeter=0;" parent="1" edge="1">
          <mxGeometry width="50" height="50" relative="1" as="geometry">
            <mxPoint x="20" y="690" as="sourcePoint" />
            <mxPoint x="1080" y="690" as="targetPoint" />
          </mxGeometry>
        </mxCell>
        <mxCell id="MvYqBOjVcbLFHdokLBEU-5" value="" style="endArrow=none;html=1;rounded=0;entryX=0.132;entryY=0.667;entryDx=0;entryDy=0;entryPerimeter=0;" parent="1" edge="1">
          <mxGeometry width="50" height="50" relative="1" as="geometry">
            <mxPoint x="20" y="360" as="sourcePoint" />
            <mxPoint x="160" y="300" as="targetPoint" />
          </mxGeometry>
        </mxCell>
        <mxCell id="MvYqBOjVcbLFHdokLBEU-6" value="" style="endArrow=none;html=1;rounded=0;" parent="1" edge="1">
          <mxGeometry width="50" height="50" relative="1" as="geometry">
            <mxPoint x="160" y="560" as="sourcePoint" />
            <mxPoint x="160" y="300" as="targetPoint" />
          </mxGeometry>
        </mxCell>
        <mxCell id="MvYqBOjVcbLFHdokLBEU-7" value="" style="endArrow=none;html=1;rounded=0;entryX=0.999;entryY=0.348;entryDx=0;entryDy=0;entryPerimeter=0;" parent="1" target="MvYqBOjVcbLFHdokLBEU-1" edge="1">
          <mxGeometry width="50" height="50" relative="1" as="geometry">
            <mxPoint x="160" y="300" as="sourcePoint" />
            <mxPoint x="570" y="400" as="targetPoint" />
          </mxGeometry>
        </mxCell>
        <mxCell id="MvYqBOjVcbLFHdokLBEU-8" value="" style="shape=cube;whiteSpace=wrap;html=1;boundedLbl=1;backgroundOutline=1;darkOpacity=0.05;darkOpacity2=0.1;fillColor=#f8cecc;strokeColor=#b85450;" parent="1" vertex="1">
          <mxGeometry x="110" y="560" width="80" height="80" as="geometry" />
        </mxCell>
        <mxCell id="MvYqBOjVcbLFHdokLBEU-9" value="" style="shape=cube;whiteSpace=wrap;html=1;boundedLbl=1;backgroundOutline=1;darkOpacity=0.05;darkOpacity2=0.1;fillColor=#dae8fc;strokeColor=#6c8ebf;" parent="1" vertex="1">
          <mxGeometry x="720" y="590" width="80" height="80" as="geometry" />
        </mxCell>
        <mxCell id="MvYqBOjVcbLFHdokLBEU-10" value="" style="shape=cube;whiteSpace=wrap;html=1;boundedLbl=1;backgroundOutline=1;darkOpacity=0.05;darkOpacity2=0.1;fillColor=#d5e8d4;strokeColor=#82b366;" parent="1" vertex="1">
          <mxGeometry x="500" y="500" width="80" height="80" as="geometry" />
        </mxCell>
        <mxCell id="MvYqBOjVcbLFHdokLBEU-11" value="" style="endArrow=none;html=1;rounded=0;" parent="1" edge="1">
          <mxGeometry width="50" height="50" relative="1" as="geometry">
            <mxPoint x="800" y="560" as="sourcePoint" />
            <mxPoint x="800" y="300" as="targetPoint" />
          </mxGeometry>
        </mxCell>
        <mxCell id="MvYqBOjVcbLFHdokLBEU-12" value="" style="endArrow=none;html=1;rounded=0;" parent="1" edge="1">
          <mxGeometry width="50" height="50" relative="1" as="geometry">
            <mxPoint x="870" y="690" as="sourcePoint" />
            <mxPoint x="800" y="560" as="targetPoint" />
          </mxGeometry>
        </mxCell>
        <mxCell id="MvYqBOjVcbLFHdokLBEU-13" value="" style="shape=cube;whiteSpace=wrap;html=1;boundedLbl=1;backgroundOutline=1;darkOpacity=0.05;darkOpacity2=0.1;fillColor=#fa6800;strokeColor=#C73500;fontColor=#000000;" parent="1" vertex="1">
          <mxGeometry x="860" y="510" width="80" height="80" as="geometry" />
        </mxCell>
        <mxCell id="MvYqBOjVcbLFHdokLBEU-14" value="" style="shape=cube;whiteSpace=wrap;html=1;boundedLbl=1;backgroundOutline=1;darkOpacity=0.05;darkOpacity2=0.1;fillColor=#fa6800;strokeColor=#C73500;fontColor=#000000;" parent="1" vertex="1">
          <mxGeometry x="960" y="570" width="80" height="80" as="geometry" />
        </mxCell>
        <mxCell id="MvYqBOjVcbLFHdokLBEU-1" value="" style="whiteSpace=wrap;html=1;rounded=0;shadow=0;labelBackgroundColor=none;strokeColor=#666666;strokeWidth=1;fillColor=#f5f5f5;fontFamily=Verdana;fontSize=12;fontColor=#333333;align=center;comic=1;opacity=75;" parent="1" vertex="1">
          <mxGeometry x="20" y="20" width="1060" height="810" as="geometry" />
        </mxCell>
        <mxCell id="MvYqBOjVcbLFHdokLBEU-15" value="End the day" style="strokeWidth=1;shadow=0;dashed=0;align=center;html=1;shape=mxgraph.mockup.buttons.button;strokeColor=#666666;fontColor=#ffffff;mainText=;buttonStyle=round;fontSize=17;fontStyle=1;fillColor=#008cff;whiteSpace=wrap;" parent="1" vertex="1">
          <mxGeometry x="465" y="40" width="150" height="50" as="geometry" />
        </mxCell>
        <mxCell id="8K2IcSBL1Du599AhObWt-1" value="" style="ellipse;shape=doubleEllipse;whiteSpace=wrap;html=1;fillColor=none;strokeWidth=3;strokeColor=#FF0000;" vertex="1" parent="1">
          <mxGeometry x="430" y="30" width="220" height="70" as="geometry" />
        </mxCell>
        <mxCell id="MvYqBOjVcbLFHdokLBEU-18" value="Are you sure you want to end the day?" style="strokeWidth=1;shadow=0;dashed=0;align=center;html=1;shape=mxgraph.mockup.containers.rrect;rSize=0;strokeColor=#666666;fontColor=#666666;fontSize=17;verticalAlign=top;whiteSpace=wrap;fillColor=#ffffff;spacingTop=32;" parent="1" vertex="1">
          <mxGeometry x="360" y="150" width="350" height="110" as="geometry" />
        </mxCell>
        <mxCell id="MvYqBOjVcbLFHdokLBEU-19" value="End Day" style="strokeWidth=1;shadow=0;dashed=0;align=center;html=1;shape=mxgraph.mockup.containers.rrect;rSize=0;fontSize=17;fontColor=#666666;strokeColor=#666666;align=left;spacingLeft=8;fillColor=#ffffff;resizeWidth=1;whiteSpace=wrap;" parent="MvYqBOjVcbLFHdokLBEU-18" vertex="1">
          <mxGeometry width="350" height="30" relative="1" as="geometry" />
        </mxCell>
        <mxCell id="MvYqBOjVcbLFHdokLBEU-20" value="" style="shape=ellipse;strokeColor=#008cff;resizable=0;fillColor=none;html=1;" parent="MvYqBOjVcbLFHdokLBEU-19" vertex="1">
          <mxGeometry x="1" y="0.5" width="20" height="20" relative="1" as="geometry">
            <mxPoint x="-25" y="-10" as="offset" />
          </mxGeometry>
        </mxCell>
        <mxCell id="MvYqBOjVcbLFHdokLBEU-21" value="Yes" style="strokeWidth=1;shadow=0;dashed=0;align=center;html=1;shape=mxgraph.mockup.containers.rrect;rSize=0;fontSize=16;fontColor=#666666;strokeColor=#c4c4c4;resizable=0;whiteSpace=wrap;fillColor=#ffffff;" parent="MvYqBOjVcbLFHdokLBEU-18" vertex="1">
          <mxGeometry x="0.5" y="1" width="120" height="25" relative="1" as="geometry">
            <mxPoint x="15" y="-40" as="offset" />
          </mxGeometry>
        </mxCell>
        <mxCell id="MvYqBOjVcbLFHdokLBEU-23" value="No" style="strokeWidth=1;shadow=0;dashed=0;align=center;html=1;shape=mxgraph.mockup.containers.rrect;rSize=0;fontSize=16;fontColor=#666666;strokeColor=#c4c4c4;resizable=0;whiteSpace=wrap;fillColor=#ffffff;" parent="MvYqBOjVcbLFHdokLBEU-18" vertex="1">
          <mxGeometry x="39.99896551724138" y="70" width="120" height="25" as="geometry" />
        </mxCell>
      </root>
    </mxGraphModel>
  </diagram>
</mxfile>
